<svg width="550" height="279" viewBox="0 0 550 279" fill="none" xmlns="http://www.w3.org/2000/svg">
<path d="M527.288 100.453C521.472 100.453 516.624 98.4395 512.746 94.4124C508.868 90.3853 506.929 85.5379 506.929 79.8701C506.929 73.9041 508.868 68.9821 512.746 65.1041C516.624 61.077 521.472 59.0635 527.288 59.0635C533.255 59.0635 538.102 61.077 541.831 65.1041C545.709 68.9821 547.648 73.9041 547.648 79.8701C547.648 85.5379 545.709 90.3853 541.831 94.4124C538.102 98.4395 533.255 100.453 527.288 100.453Z" fill="#2563EB"/>
<path d="M445.813 164.886C434.627 164.886 424.484 162.425 415.386 157.503C406.437 152.432 399.352 145.571 394.132 136.92C388.911 128.269 386.301 118.574 386.301 107.835C386.301 97.0965 388.911 87.4763 394.132 78.9746C399.352 70.473 406.437 63.7612 415.386 58.8392C424.335 53.768 434.478 51.2324 445.813 51.2324C457.149 51.2324 467.291 53.6934 476.24 58.6154C485.189 63.5374 492.274 70.3238 497.495 78.9746C502.715 87.4763 505.325 97.0965 505.325 107.835C505.325 118.574 502.715 128.269 497.495 136.92C492.274 145.571 485.189 152.432 476.24 157.503C467.291 162.425 457.149 164.886 445.813 164.886ZM445.813 133.788C450.735 133.788 455.061 132.744 458.789 130.656C462.518 128.418 465.352 125.361 467.291 121.483C469.379 117.456 470.423 112.907 470.423 107.835C470.423 102.764 469.379 98.3643 467.291 94.6356C465.203 90.7576 462.295 87.7746 458.566 85.6864C454.986 83.4492 450.735 82.3305 445.813 82.3305C441.04 82.3305 436.789 83.4492 433.061 85.6864C429.332 87.7746 426.423 90.7576 424.335 94.6356C422.247 98.5135 421.203 102.988 421.203 108.059C421.203 112.981 422.247 117.456 424.335 121.483C426.423 125.361 429.332 128.418 433.061 130.656C436.789 132.744 441.04 133.788 445.813 133.788Z" fill="white"/>
<path d="M338.481 162.426V0H372.711V162.426H338.481Z" fill="white"/>
<path d="M283.422 164.886C272.236 164.886 262.093 162.425 252.995 157.503C243.897 152.581 236.737 145.795 231.517 137.144C226.297 128.493 223.687 118.798 223.687 108.059C223.687 97.1711 226.297 87.4763 231.517 78.9746C236.887 70.3238 244.121 63.5374 253.219 58.6154C262.317 53.6934 272.534 51.2324 283.87 51.2324C292.371 51.2324 300.127 52.7239 307.137 55.707C314.297 58.5408 320.636 62.8662 326.154 68.6832L304.229 90.6084C301.693 87.7746 298.71 85.6864 295.28 84.3441C291.998 83.0017 288.195 82.3305 283.87 82.3305C278.948 82.3305 274.548 83.4492 270.67 85.6864C266.941 87.7746 263.958 90.7576 261.72 94.6356C259.632 98.3643 258.588 102.764 258.588 107.835C258.588 112.907 259.632 117.381 261.72 121.259C263.958 125.137 267.015 128.195 270.893 130.432C274.771 132.669 279.097 133.788 283.87 133.788C288.344 133.788 292.297 133.042 295.727 131.551C299.307 129.91 302.365 127.673 304.9 124.839L326.602 146.764C320.934 152.73 314.521 157.279 307.361 160.411C300.202 163.394 292.222 164.886 283.422 164.886Z" fill="white"/>
<path d="M141.783 162.428V53.6963H176.013V162.428H141.783ZM176.013 102.693L161.695 91.5062C164.529 78.8283 169.301 68.9843 176.013 61.9742C182.725 54.964 192.047 51.459 203.979 51.459C209.2 51.459 213.749 52.2793 217.627 53.92C221.654 55.4115 225.159 57.7979 228.142 61.0793L207.783 86.8079C206.291 85.1673 204.427 83.8995 202.19 83.0046C199.952 82.1096 197.417 81.6622 194.583 81.6622C188.915 81.6622 184.366 83.452 180.935 87.0316C177.654 90.4621 176.013 95.6824 176.013 102.693Z" fill="white"/>
<path d="M57.4984 164.665C47.5052 164.665 38.556 162.204 30.6509 157.282C22.895 152.36 16.7052 145.648 12.0814 137.147C7.60686 128.645 5.36957 118.95 5.36957 108.062C5.36957 97.174 7.60686 87.4791 12.0814 78.9775C16.7052 70.4758 22.895 63.764 30.6509 58.842C38.556 53.92 47.5052 51.459 57.4984 51.459C64.8069 51.459 71.3696 52.8759 77.1865 55.7098C83.1526 58.5437 88.0001 62.4962 91.7289 67.5674C95.4577 72.4894 97.5459 78.1571 97.9933 84.5706V131.553C97.5459 137.967 95.4577 143.709 91.7289 148.78C88.1493 153.702 83.3764 157.58 77.4103 160.414C71.4442 163.248 64.8069 164.665 57.4984 164.665ZM64.434 133.791C71.7425 133.791 77.634 131.404 82.1086 126.631C86.5832 121.709 88.8204 115.52 88.8204 108.062C88.8204 102.991 87.7764 98.5163 85.6882 94.6384C83.7493 90.7604 80.9154 87.7774 77.1865 85.6893C73.6069 83.452 69.4306 82.3334 64.6577 82.3334C59.8848 82.3334 55.634 83.452 51.9052 85.6893C48.3255 87.7774 45.417 90.7604 43.1797 94.6384C41.0916 98.5163 40.0475 102.991 40.0475 108.062C40.0475 112.984 41.0916 117.384 43.1797 121.262C45.2679 125.14 48.1764 128.198 51.9052 130.435C55.634 132.672 59.8103 133.791 64.434 133.791ZM87.4781 162.428V133.119L92.6238 106.72L87.4781 80.3198V53.6963H121.037V162.428H87.4781Z" fill="white"/>
<path d="M530.267 278.313C525.676 278.313 521.758 277.474 518.511 275.794C515.264 274.115 512.381 271.68 509.862 268.489L515.236 263.115C517.083 265.69 519.211 267.649 521.618 268.993C524.025 270.28 526.992 270.924 530.519 270.924C533.989 270.924 536.76 270.168 538.832 268.657C540.959 267.145 542.023 265.074 542.023 262.443C542.023 260.26 541.519 258.496 540.511 257.153C539.504 255.809 538.132 254.718 536.397 253.878C534.717 252.982 532.87 252.199 530.855 251.527C528.839 250.799 526.824 250.043 524.809 249.26C522.793 248.42 520.946 247.412 519.267 246.237C517.587 245.005 516.216 243.41 515.152 241.45C514.144 239.491 513.64 237.028 513.64 234.061C513.64 230.758 514.424 227.959 515.992 225.664C517.615 223.313 519.798 221.521 522.541 220.29C525.34 219.002 528.475 218.358 531.946 218.358C535.753 218.358 539.168 219.114 542.191 220.626C545.214 222.081 547.677 224.012 549.58 226.42L544.206 231.794C542.471 229.778 540.595 228.267 538.58 227.259C536.621 226.252 534.353 225.748 531.778 225.748C528.643 225.748 526.152 226.448 524.305 227.847C522.457 229.191 521.534 231.094 521.534 233.557C521.534 235.516 522.038 237.112 523.045 238.343C524.109 239.519 525.48 240.527 527.16 241.366C528.839 242.206 530.687 242.99 532.702 243.718C534.773 244.389 536.816 245.145 538.832 245.985C540.847 246.824 542.694 247.888 544.374 249.176C546.053 250.463 547.397 252.143 548.405 254.214C549.468 256.229 550 258.776 550 261.855C550 267.005 548.209 271.036 544.626 273.947C541.099 276.858 536.313 278.313 530.267 278.313Z" fill="white"/>
<path d="M411.179 277.475V219.199H416.721L441.409 259.757H437.63L462.318 219.199H467.86V277.475H459.966V233.054L461.814 233.558L442.332 265.551H436.79L417.309 233.558L419.072 233.054V277.475H411.179Z" fill="white"/>
<path d="M328.061 277.475V219.199H335.954V277.475H328.061ZM333.435 277.475V270.253H366.856V277.475H333.435ZM333.435 251.108V244.222H364.085V251.108H333.435ZM333.435 226.421V219.199H366.436V226.421H333.435Z" fill="white"/>
<path d="M257.441 277.475V220.879H265.335V277.475H257.441ZM237.624 226.421V219.199H285.068V226.421H237.624Z" fill="white"/>
<path d="M180.737 278.313C176.147 278.313 172.228 277.474 168.981 275.794C165.734 274.115 162.851 271.68 160.332 268.489L165.706 263.115C167.553 265.69 169.681 267.649 172.088 268.993C174.495 270.28 177.462 270.924 180.989 270.924C184.46 270.924 187.231 270.168 189.302 268.657C191.429 267.145 192.493 265.074 192.493 262.443C192.493 260.26 191.989 258.496 190.981 257.153C189.974 255.809 188.602 254.718 186.867 253.878C185.187 252.982 183.34 252.199 181.325 251.527C179.309 250.799 177.294 250.043 175.279 249.26C173.264 248.42 171.416 247.412 169.737 246.237C168.057 245.005 166.686 243.41 165.622 241.45C164.615 239.491 164.111 237.028 164.111 234.061C164.111 230.758 164.894 227.959 166.462 225.664C168.085 223.313 170.269 221.521 173.012 220.29C175.811 219.002 178.946 218.358 182.416 218.358C186.223 218.358 189.638 219.114 192.661 220.626C195.684 222.081 198.147 224.012 200.05 226.42L194.676 231.794C192.941 229.778 191.065 228.267 189.05 227.259C187.091 226.252 184.824 225.748 182.248 225.748C179.114 225.748 176.622 226.448 174.775 227.847C172.928 229.191 172.004 231.094 172.004 233.557C172.004 235.516 172.508 237.112 173.515 238.343C174.579 239.519 175.951 240.527 177.63 241.366C179.309 242.206 181.157 242.99 183.172 243.718C185.243 244.389 187.287 245.145 189.302 245.985C191.317 246.824 193.165 247.888 194.844 249.176C196.524 250.463 197.867 252.143 198.875 254.214C199.938 256.229 200.47 258.776 200.47 261.855C200.47 267.005 198.679 271.036 195.096 273.947C191.569 276.858 186.783 278.313 180.737 278.313Z" fill="white"/>
<path d="M99.4755 253.795L76.5514 219.199H85.7042L104.178 247.497H100.063L118.621 219.199H127.606L104.514 253.795H99.4755ZM98.132 277.475V248.589H106.025V277.475H98.132Z" fill="white"/>
<path d="M20.405 278.313C15.8146 278.313 11.8959 277.474 8.64902 275.794C5.40214 274.115 2.51913 271.68 0 268.489L5.37415 263.115C7.22152 265.69 9.34878 267.649 11.756 268.993C14.1631 270.28 17.1301 270.924 20.6569 270.924C24.1277 270.924 26.8987 270.168 28.97 268.657C31.0973 267.145 32.1609 265.074 32.1609 262.443C32.1609 260.26 31.6571 258.496 30.6495 257.153C29.6418 255.809 28.2703 254.718 26.5349 253.878C24.8555 252.982 23.0081 252.199 20.9928 251.527C18.9775 250.799 16.9622 250.043 14.9469 249.26C12.9316 248.42 11.0842 247.412 9.40476 246.237C7.72534 245.005 6.35381 243.41 5.29018 241.45C4.28253 239.491 3.7787 237.028 3.7787 234.061C3.7787 230.758 4.56243 227.959 6.12989 225.664C7.75333 223.313 9.93658 221.521 12.6796 220.29C15.4787 219.002 18.6136 218.358 22.0844 218.358C25.8911 218.358 29.3059 219.114 32.3289 220.626C35.3518 222.081 37.815 224.012 39.7183 226.42L34.3442 231.794C32.6088 229.778 30.7334 228.267 28.7181 227.259C26.7588 226.252 24.4916 225.748 21.9165 225.748C18.7815 225.748 16.2904 226.448 14.443 227.847C12.5957 229.191 11.672 231.094 11.672 233.557C11.672 235.516 12.1758 237.112 13.1835 238.343C14.2471 239.519 15.6186 240.527 17.2981 241.366C18.9775 242.206 20.8248 242.99 22.8401 243.718C24.9114 244.389 26.9547 245.145 28.97 245.985C30.9853 246.824 32.8327 247.888 34.5121 249.176C36.1915 250.463 37.5351 252.143 38.5427 254.214C39.6064 256.229 40.1382 258.776 40.1382 261.855C40.1382 267.005 38.3468 271.036 34.764 273.947C31.2373 276.858 26.4509 278.313 20.405 278.313Z" fill="white"/>
</svg>
